
<svg xmlns="http://www.w3.org/2000/svg" xml:space="preserve" width="2480px" height="3508px" version="1.1" style="shape-rendering:geometricPrecision; text-rendering:geometricPrecision; image-rendering:optimizeQuality; fill-rule:evenodd; clip-rule:evenodd"
viewBox="0 0 24800 35074"
 enable-background="new 0 0 128 128">
 <defs>
  <style type="text/css">
   <![CDATA[
    .str0 {stroke:#4D4D4D;stroke-width:8.99886}
    .fil3 {fill:black}
    .fil0 {fill:#22313F}
    .fil1 {fill:#E67E22}
    .fil2 {fill:#E6E6E6}
   ]]>
  </style>
 </defs>
 <g id="Слой_x0020_1">
  <rect id="line_1_" class="fil0" transform="matrix(0.35174 0.35174 -0.35174 0.35174 8489.41 8623.29)" width="775" height="1550"/>
  <path id="line" class="fil1" d="M6534 10846l0 0c-154,-154 -154,-395 0,-549l1216 -1175c154,-154 269,-69 423,86l0 0c154,154 307,254 152,409l-1251 1229c-144,154 -395,154 -540,0z"/>
  <circle id="circle_2_" class="fil2 str0" cx="9576" cy="7805" r="1446"/>
  <path class="fil3" d="M10108 8376c-30,0 -273,-231 -331,-235l-47 102c-20,49 -105,303 -148,303 -41,0 -94,-55 -124,-81 -10,-9 -12,-9 -22,-18l-500 -422c-56,-39 -118,-25 -195,-25 -16,0 -17,-12 -20,-25 25,-38 116,-44 156,-54 59,-13 113,-30 165,-45 23,-6 149,-51 162,-43 14,7 2,20 -5,29 -10,12 -19,16 -32,24 -95,63 -20,103 31,148l269 227c41,32 84,70 130,95 40,-60 103,-191 120,-265 -17,-12 -27,-27 -43,-42l-50 -40c-55,-45 -150,-116 -207,-149 -41,-23 -104,-13 -155,-25 0,-30 26,-38 75,-50 34,-9 64,-16 99,-26 31,-9 64,-19 95,-30 68,-22 66,-29 131,-29 0,24 0,21 -35,45 -67,47 -47,51 41,124 13,10 88,66 99,66 35,0 66,-148 66,-170 0,-56 7,-60 -50,-66 -23,-2 -48,-5 -66,-14 5,-19 10,-19 29,-27 14,-7 23,-10 40,-15l262 -83c67,0 -43,75 -59,91 -43,44 -146,295 -146,334 0,15 16,24 25,31 12,9 19,15 34,25l134 97c30,20 51,38 82,38 31,-132 110,-466 110,-576 0,-44 -115,-5 -115,-45 0,-30 100,-55 138,-67 30,-10 49,-18 76,-30 30,-13 96,-48 96,-3 0,47 -72,20 -108,196 -45,212 -91,419 -151,625 -15,52 -20,100 -56,100zm-1808 -581c0,203 40,346 111,520 24,59 77,152 112,203 149,214 380,403 628,485 39,13 78,26 123,37 284,71 582,41 846,-81 90,-42 219,-119 287,-184 16,-15 27,-21 43,-37l115 -120c15,-16 22,-29 35,-45 36,-44 66,-92 94,-142 19,-33 39,-69 55,-105 68,-153 115,-338 115,-516 0,-298 -91,-581 -273,-813 -10,-13 -17,-22 -27,-34 -9,-12 -18,-19 -29,-30 -12,-13 -15,-20 -28,-33l-235 -186c-22,-14 -140,-81 -164,-81 -23,0 -63,27 -65,55 85,20 95,70 15,70 -28,0 -40,-23 -54,-41 -10,-14 -9,-16 -28,-22 -69,-21 -99,8 -138,29 -45,23 -103,19 -156,19 -20,0 -15,-25 -20,-45 -35,-17 -145,-5 -145,30l0 70c-16,1 -44,6 -62,8 -23,4 -49,3 -73,3 -27,56 10,150 40,150 50,0 91,-87 140,-21 40,54 24,145 -59,125 -38,-10 -76,-42 -76,71 0,46 11,78 20,115 -82,0 -102,-1 -167,18 -52,16 -100,29 -129,62 22,42 51,44 51,65 0,42 -66,66 -106,70 -52,5 -105,4 -150,-19 4,-49 48,-53 60,-106 -52,-25 -201,25 -235,25 -25,0 -17,-29 -15,-50 2,-40 44,-155 80,-155 37,0 70,32 101,-14 17,-25 27,-96 -11,-121 -31,8 -55,55 -80,55 -57,0 -19,-110 -10,-130 11,-26 21,-34 54,-47 43,-18 32,2 64,-61l22 -53c-28,1 -39,14 -70,31 2,-27 44,-65 66,-80 38,-26 24,21 83,-37 12,-12 32,-32 36,-49 -8,4 -43,14 -55,15 16,-21 52,-21 65,-40 -51,-24 -323,176 -380,221 -27,20 -42,35 -66,58 -61,60 -62,58 -119,133 -132,175 -236,448 -236,755z"/>
 </g>
</svg>
