<?xml version="1.0" encoding="UTF-8"?>
<!DOCTYPE svg PUBLIC "-//W3C//DTD SVG 1.1//EN" "http://www.w3.org/Graphics/SVG/1.1/DTD/svg11.dtd">
<!-- Creator: CorelDRAW X7 -->
<svg xmlns="http://www.w3.org/2000/svg" xml:space="preserve" width="2480px" height="3508px" version="1.1" style="shape-rendering:geometricPrecision; text-rendering:geometricPrecision; image-rendering:optimizeQuality; fill-rule:evenodd; clip-rule:evenodd"
viewBox="0 0 24800 35074"
 xmlns:xlink="http://www.w3.org/1999/xlink">
 <defs>
  <style type="text/css">
   <![CDATA[
    .fil0 {fill:black}
   ]]>
  </style>
 </defs>
 <g id="Слой_x0020_1">
  <metadata id="CorelCorpID_0Corel-Layer"/>
  <path class="fil0" d="M3257 4388l658 0c57,0 104,47 104,104l0 479c-23,-19 -48,-35 -75,-48l0 -393 -717 0 0 633 197 0c-1,13 -2,25 -2,38 0,14 1,26 2,39l-167 0c-57,0 -104,-47 -104,-104l0 -644c0,-57 47,-104 104,-104zm71 285l71 0 0 70 -71 0 0 -70zm142 -1l355 0 0 71 -355 0 0 -71zm-141 142l70 0 0 71 -70 0 0 -71zm-1 143l71 0 0 70 -71 0 0 -70zm143 -143l355 0 0 71 -32 0c-6,0 -12,0 -18,0 -6,0 -12,0 -18,0l-287 0 0 -71zm0 143l81 0c-29,20 -54,45 -74,73l-7 0 0 -73zm25 135l0 -30c14,-1 25,-4 33,-8 8,-4 14,-10 17,-18l53 0 0 163c0,6 2,9 5,11 3,2 9,3 20,3l7 0 0 30 -135 0 0 -30 10 0c10,0 18,-1 21,-3 3,-2 5,-7 5,-17l0 -1 0 -100 -36 0zm192 151c0,-1 0,-2 0,-4 -1,-1 -1,-3 -1,-3 0,-16 4,-30 10,-41 6,-12 16,-24 31,-35 6,-5 15,-11 27,-18 13,-8 22,-14 28,-18 4,-3 8,-8 10,-13 3,-5 4,-10 4,-16 0,-9 -3,-16 -10,-21 -6,-5 -15,-7 -26,-7 -7,0 -13,1 -19,3 -5,2 -10,6 -14,10l1 0c8,0 14,2 19,7 4,4 7,10 7,17 0,10 -3,18 -9,24 -6,5 -15,8 -25,8 -10,0 -19,-3 -25,-10 -6,-6 -9,-15 -9,-26 0,-20 8,-37 25,-50 17,-13 39,-20 66,-20 27,0 49,6 66,19 17,13 26,30 26,51 0,17 -6,31 -17,41 -11,11 -31,20 -59,28 -3,1 -7,3 -13,4 -28,8 -43,17 -46,27 7,-4 15,-7 22,-9 7,-2 14,-3 22,-3 7,0 16,1 27,4 11,3 19,4 22,4 5,0 8,-2 11,-6 2,-3 3,-9 3,-17l0 -3 35 0c0,1 0,3 0,5 0,1 0,4 0,7 0,23 -4,40 -14,51 -9,10 -24,16 -44,16 -13,0 -28,-3 -45,-8 -18,-5 -29,-8 -34,-8 -4,0 -8,1 -11,2 -2,2 -4,4 -6,8l-35 0zm296 -93l0 -29c13,-1 21,-3 27,-7 6,-4 9,-11 9,-19 0,-10 -4,-18 -10,-24 -7,-6 -16,-9 -28,-9 -6,0 -12,1 -17,3 -5,2 -9,5 -12,9 6,0 12,2 16,6 4,4 6,9 6,16 0,9 -3,15 -9,20 -5,5 -13,7 -23,7 -10,0 -17,-3 -24,-9 -6,-5 -9,-13 -9,-22 0,-19 9,-34 26,-45 17,-11 40,-17 70,-17 26,0 46,5 60,15 15,10 22,24 22,42 0,11 -3,20 -9,28 -7,7 -16,13 -29,17 16,4 27,11 35,20 7,9 11,20 11,34 0,19 -8,35 -25,46 -16,11 -39,16 -67,16 -33,0 -57,-4 -74,-14 -17,-9 -25,-23 -25,-42 0,-11 3,-20 11,-27 7,-7 16,-10 27,-10 10,0 17,2 23,8 6,5 9,12 9,21 0,8 -2,14 -6,18 -5,4 -12,6 -21,7 4,3 9,5 15,6 6,2 12,2 18,2 14,0 24,-3 31,-9 7,-6 11,-15 11,-26 0,-10 -3,-18 -10,-24 -7,-6 -16,-8 -29,-8z"/>
 </g>
</svg>
